<?xml version="1.0" encoding="UTF-8"?> <svg xmlns="http://www.w3.org/2000/svg" id="Layer_2" data-name="Layer 2" viewBox="0 0 165.64 77.51"><defs><style> .cls-1 { fill: #fff; } .cls-2 { fill: #3890d6; } .cls-3 { fill: #f48c2f; } .cls-4 { fill: #7aa154; } .cls-5 { fill: #ff3694; } </style></defs><g id="Layer_1-2" data-name="Layer 1"><g><g><path class="cls-1" d="M75.9,63.17c-.77.97-1.85,1.42-2.95,1.42-2.07,0-3.72-1.58-3.72-3.61s1.64-3.61,3.72-3.61c1.1,0,2.18.45,2.95,1.42l-1.06.79c-.44-.64-1.11-1-1.9-1-1.25,0-2.37,1.05-2.37,2.39s1.12,2.39,2.37,2.39c.78,0,1.48-.36,1.92-.96l1.04.75Z"></path><path class="cls-1" d="M76.63,57.52h1.15v2.26h.02c.32-.5.9-.82,1.63-.82,1.12,0,2.07.94,2.07,2.26v3.22h-1.15v-2.97c0-.97-.51-1.37-1.27-1.37s-1.31.47-1.31,1.35v2.99h-1.15v-6.92Z"></path><path class="cls-1" d="M83.28,57.38c.35,0,.64.29.64.64s-.29.64-.64.64-.64-.29-.64-.64.29-.64.64-.64ZM82.71,59.11h1.15v5.34h-1.15v-5.34Z"></path><path class="cls-1" d="M89.02,60.85c-.31-.47-.74-.8-1.39-.8-1,0-1.73.77-1.73,1.73s.73,1.73,1.73,1.73c.63,0,1.08-.32,1.39-.81l1,.6c-.47.75-1.38,1.29-2.39,1.29-1.86,0-2.94-1.4-2.94-2.81s1.08-2.81,2.94-2.81c1.14,0,1.87.54,2.39,1.29l-1,.6Z"></path><path class="cls-1" d="M94.89,63.79h-.02c-.36.49-1.03.79-1.75.79-1.75,0-2.77-1.43-2.77-2.81s1.09-2.81,2.82-2.81c.79,0,1.4.34,1.7.79h.02v-.65h1.15v5.34h-1.15v-.65ZM93.26,63.51c.9,0,1.68-.77,1.68-1.73s-.77-1.73-1.68-1.73-1.7.77-1.7,1.73.77,1.73,1.7,1.73Z"></path><path class="cls-1" d="M102.42,63.85c0,1.76-1.35,2.78-2.79,2.78-.74,0-1.64-.31-2.25-1.06l.94-.68c.22.31.72.66,1.26.66,1.17,0,1.76-.76,1.76-1.58v-.35c-.49.54-1.04.83-1.82.83-1.38,0-2.59-1.04-2.59-2.72s1.3-2.76,2.72-2.76c.72,0,1.29.28,1.66.77h.02v-.63h1.08v4.74ZM99.75,63.36c.93,0,1.59-.74,1.59-1.65s-.72-1.67-1.59-1.67-1.61.74-1.61,1.65.64,1.67,1.61,1.67Z"></path><path class="cls-1" d="M106.23,58.97c1.86,0,2.94,1.4,2.94,2.81s-1.08,2.81-2.94,2.81-2.94-1.4-2.94-2.81,1.08-2.81,2.94-2.81ZM106.23,63.51c1,0,1.73-.77,1.73-1.73s-.73-1.73-1.73-1.73-1.73.77-1.73,1.73.73,1.73,1.73,1.73Z"></path><path class="cls-1" d="M109.94,63.31h1.15v1.28l-1.15.77v-2.05Z"></path><path class="cls-1" d="M103.52,66.6h1.28v6.92h-1.28v-6.92Z"></path><path class="cls-1" d="M106.33,66.6h1.28v5.71h2.72v-1.65h1.28v2.87h-5.28v-6.92Z"></path></g><rect class="cls-5" x="113.79" y="54.54" width=".8" height="22.98"></rect><g><path class="cls-5" d="M117.29,57.52h1.15v2.26h.02c.32-.5.9-.82,1.63-.82,1.12,0,2.07.94,2.07,2.26v3.22h-1.15v-2.97c0-.97-.51-1.37-1.27-1.37s-1.31.47-1.31,1.35v2.99h-1.15v-6.92Z"></path><path class="cls-5" d="M124.52,59.76h.02c.41-.51,1.03-.79,1.75-.79,1.75,0,2.77,1.43,2.77,2.81s-1.09,2.81-2.82,2.81c-.79,0-1.4-.34-1.7-.79h-.02v2.49h-1.15v-7.18h1.15v.65ZM126.15,60.05c-.9,0-1.68.77-1.68,1.73s.77,1.73,1.68,1.73,1.7-.77,1.7-1.73-.77-1.73-1.7-1.73Z"></path><path class="cls-5" d="M133.92,60.85c-.31-.47-.74-.8-1.39-.8-1,0-1.73.77-1.73,1.73s.73,1.73,1.73,1.73c.63,0,1.08-.32,1.39-.81l1,.6c-.47.75-1.38,1.29-2.39,1.29-1.86,0-2.94-1.4-2.94-2.81s1.08-2.81,2.94-2.81c1.14,0,1.87.54,2.39,1.29l-1,.6Z"></path><path class="cls-5" d="M117.29,68.19h1.15v2.99c0,.78.57,1.34,1.29,1.34s1.29-.56,1.29-1.34v-2.99h1.15v3.09c0,1.5-1.17,2.39-2.44,2.39s-2.44-.89-2.44-2.39v-3.09Z"></path><path class="cls-5" d="M123.37,68.19h1.15v.67h.02c.32-.5.9-.82,1.63-.82,1.12,0,2.07.94,2.07,2.26v3.22h-1.15v-2.97c0-.97-.51-1.37-1.27-1.37s-1.31.47-1.31,1.35v2.99h-1.15v-5.34Z"></path><path class="cls-5" d="M130.02,66.46c.35,0,.64.29.64.64s-.29.64-.64.64-.64-.29-.64-.64.29-.64.64-.64ZM129.44,68.19h1.15v5.34h-1.15v-5.34Z"></path><path class="cls-5" d="M131.31,68.19h.65v-1.41l1.15-.32v1.73h.92v1.08h-.92v2.11c0,.57.13.84.47,1.04l.62.35-.51.9c-1.18-.56-1.73-.97-1.73-2.08v-2.32h-.65v-1.08Z"></path><path class="cls-5" d="M139.86,72.37c-.64.8-1.52,1.29-2.48,1.3-1.86,0-2.94-1.4-2.94-2.81s1.08-2.81,2.94-2.81c1.11,0,2.77.92,2.77,3v.21h-4.43c.07.82.83,1.4,1.63,1.4.62,0,1.15-.3,1.54-.83l.97.54ZM138.8,70.31c-.24-.82-.85-1.25-1.58-1.25s-1.32.45-1.51,1.25h3.09Z"></path><path class="cls-5" d="M141.28,71.94c.41.44,1.08.78,1.68.78.66,0,1.06-.38,1.06-.67,0-.35-.28-.54-.69-.62l-.65-.12c-1.5-.28-1.92-.76-1.92-1.52,0-.9.76-1.74,2.09-1.74.74,0,1.39.22,2.12.74l-.65.81c-.56-.47-1.06-.6-1.43-.6-.5,0-.98.24-.98.67,0,.32.25.49.69.56l1.16.22c.95.18,1.41.63,1.41,1.42s-.64,1.8-2.26,1.8c-.9,0-1.68-.32-2.4-.94l.78-.79Z"></path><path class="cls-5" d="M146.63,72.32c.37,0,.67.3.67.67s-.3.67-.67.67-.67-.3-.67-.67.3-.67.67-.67Z"></path></g><path class="cls-1" d="M133.17,37.14c3.76-2.85,5.59-5.92,5.59-9.37,0-6.34-5.06-10.77-12.29-10.77-5.46,0-10.34,2.61-13.4,7.17l-.74,1.1,7.36,2.79.46-.72c1.4-2.17,3.58-3.41,5.97-3.41,2.65,0,4.81,1.67,4.81,3.73,0,1.38-.72,2.61-2.26,3.86l-15.14,11.95v7.23h25.13v-7.23h-13.87l8.37-6.34Z"></path><path class="cls-1" d="M153.94,28.5c-.36,0-.68,0-.96.02l6.35-8.82-7.71-2.5-8.93,13.76c-2.01,3.06-3.17,5.56-3.17,9.25,0,5.31,4.58,10.95,13.06,10.95,7.69,0,13.06-4.78,13.06-11.63,0-6.3-5.03-11.04-11.69-11.04ZM158.12,39.69c0,2.83-2.49,5.13-5.55,5.13s-5.55-2.3-5.55-5.13,2.49-5.12,5.55-5.12,5.55,2.3,5.55,5.12Z"></path><path class="cls-1" d="M104.4,39.09l-.64.86c-1.81,2.45-4.62,3.85-7.7,3.85-4.14,0-7.75-2.83-9.02-6.64-.04-.13-.08-.26-.12-.39-.24-.82-.37-1.69-.37-2.58,0-5.21,4.36-9.61,9.51-9.61,3.11,0,5.8,1.43,7.58,4.02l.64.93,6.52-4.89-.69-.87c-3.47-4.36-8.46-6.77-14.05-6.77-8.67,0-15.69,5.77-17.33,13.65-1.54-.34-3.12-.54-4.55-.72-4.6-.58-6.76-1.05-6.76-2.84,0-1.55,1.68-3.11,5.42-3.11,2.02,0,3.73.48,5.39,1.56,1.16-2.33,2.79-4.38,4.77-6.04-2.77-1.67-6.08-2.51-9.87-2.51-7.92,0-13.89,4.47-13.89,10.4,0,8.2,7.6,9.22,13.14,9.96,4.23.57,6.81,1.01,6.81,2.9,0,2.56-3.27,3.52-6.31,3.55-3.02,0-6.08-1.4-8.38-3.85l-.72-.77-5.95,5.34.77.81c3.66,3.85,8.78,6.05,14.04,6.05,4.31,0,8.79-1.46,11.66-4.26,3.1,2.66,7.21,4.26,11.76,4.26,5.59,0,10.58-2.4,14.05-6.77l.71-.89-6.42-4.64Z"></path><g><polygon class="cls-5" points="21.83 6.1 23.16 1.44 24.5 6.1 29.2 4.92 25.83 8.41 29.2 11.9 24.5 10.72 23.16 15.38 21.83 10.72 17.13 11.9 20.5 8.41 17.13 4.92 21.83 6.1"></polygon><path class="cls-4" d="M20.04,41.65h-8.53s-.03,3.15-.03,3.15l-10.47-.03-1.01,12c8.18-9.96,18.12-9.31,18.12-9.31,0,0-.07-3.21,1.92-5.8Z"></path><polygon class="cls-2" points="42.68 16.17 43.81 12.21 44.94 16.17 48.94 15.17 46.07 18.13 48.94 21.1 44.94 20.09 43.81 24.06 42.68 20.09 38.68 21.1 41.54 18.13 38.68 15.17 42.68 16.17"></polygon><polygon class="cls-2" points="39.23 7.27 39.96 4.69 40.7 7.27 43.3 6.62 41.43 8.54 43.3 10.47 40.7 9.82 39.96 12.4 39.23 9.82 36.63 10.47 38.49 8.54 36.63 6.62 39.23 7.27"></polygon><polygon class="cls-2" points="33.56 13.26 34.21 10.98 34.86 13.26 37.16 12.69 35.51 14.39 37.16 16.09 34.86 15.52 34.21 17.8 33.56 15.52 31.26 16.09 32.91 14.39 31.26 12.69 33.56 13.26"></polygon><path class="cls-3" d="M33.21,22.34c0-.06-.05-.1-.1-.1h-.69c-.06,0-.1-.04-.1-.09v-1.88s-.03-.06-.05-.08l-1.35-1.67s-.09-.03-.12,0l-1.39,1.75v1.81c.01.08-.05.15-.14.15h-.51c-.08,0-.15.07-.15.16v.76c-.01.06-.06.1-.12.1l-4.32.04c-.06,0-.1-.05-.1-.1v-.79c-.01-.08-.08-.15-.16-.15h-.58c-.08,0-.15-.06-.15-.15v-1.79s-.02-.06-.04-.08l-1.34-1.71s-.1-.03-.13,0l-1.29,1.71s-.04.05-.03.08v1.83s-.03.09-.08.09h-.63c-.08,0-.15.08-.15.16l.02,11.63h-4.2s-2.38-22.42-2.38-22.42c0-.04-.03-.07-.07-.08h-1.27s-.1-1.07-.1-1.07h-.64s0-10.45,0-10.45l-.85,1.01v9.45h-1.9s0-10.46,0-10.46l-.85,1.01v9.47h-.73s-.07,1.08-.09,1.08l-1.26.02c-.05,0-.1.04-.1.1l-2.3,29.45h4.55s1.08-25.88,1.08-25.88h1.44s1.38,22.78,1.38,22.78h12.75s.01-10.99.01-10.99c0-.06.05-.1.1-.1l4.52-.03c.06,0,.1.05.1.1v9.01c0,.06.06.11.12.1.53-.06,1.35-.16,1.89-.16.94,0,1.48.05,2.39.25.06.01.12-.03.12-.1v-13.76Z"></path><path class="cls-4" d="M50.67,24.86l-3.27-.89-.93,2.91-9.96-.02v10.59c1.27.38,3.64,1.88,4.65,3.5.05.07.09.05.09-.01v-9.75s5.09,0,5.09,0v10.42l4.33-.02v-16.73Z"></path><path class="cls-2" d="M51.32,54.28c-1.3,2.82-3.9,5.38-6.67,6.77-2.77,1.39-5.19,2.04-9.01,1.9-4.18-.16-9.9-4.35-15.32-5.99-2.29-.7-4.84-.74-7.1.06,2.39-1.93,5.54-2.55,8.61-2.59,2.22-.03,5.93,1.23,6.99,1.62,2.3,1.03,4.77,1.58,7.35,1.56,8.17-.06,14.41-6.11,14.92-12.59h-7.65s0,.02,0,.03c.04,1.66-.78,8.07-7.27,8.54-5.54.4-10.57-2.25-9.39-7.08,1.05-4.31,9.53-5.61,9.77,2.07,2.68-1.03,2.66-6.97-2.67-8.65-8.86-2.78-13.59,6.61-11.36,10.77-3.72-.63-7.95.28-11.06,2.4-3.11,2.13-5.92,4.2-7.29,7.71,3-2.09,7.3-1.95,10.9-1.33,3.6.62,6.95,2.27,10.07,4.18,2.92,1.79,6.15,2.77,9.79,3.12,4.59.44,16.39-1.95,16.39-12.49Z"></path></g></g></g></svg> 